# This file uses centimeters as units for non-parametric coordinates.

mtllib SM_Chr_Attach_Priest_Hat_01.mtl
g default
v -13.744338 3.190994 -0.263748
v -17.265823 17.281616 -4.674429
v -16.002029 14.529694 -9.247887
v -13.688796 1.111176 -4.242108
v -0.004592 38.646301 -6.835389
v -0.004592 27.533249 -19.442160
v -0.004592 21.245834 9.859388
v -0.004592 8.310638 12.652923
v -0.004592 -1.633423 -15.650627
v -0.004592 10.024338 -21.385006
v -0.004592 2.142700 -0.285831
v -0.004592 11.350677 12.005816
v -15.328933 17.590546 -1.580970
v -0.004592 35.599960 -3.818506
v -13.366042 6.923157 1.056846
v -10.081374 27.465729 -2.804406
v -10.975173 28.823822 -5.414037
v -14.083694 6.046738 -1.237569
v -13.938796 3.701660 -5.312469
v -0.004592 0.612503 -16.889412
v -2.145583 11.111801 11.400139
v -2.603957 20.982376 9.103893
v -1.606765 34.037491 -2.876972
v -10.214431 20.977921 -15.359830
v -13.444167 2.288589 -7.844267
v -14.423415 13.167343 -11.561234
v -7.485061 19.061432 -17.596924
v -0.004592 23.490768 -19.558107
v -16.178299 13.802811 -3.742676
v -15.735183 12.111954 -8.306355
v -0.004592 24.049377 -9.209403
v -6.206374 21.242081 -7.351805
v -0.004592 26.805710 -17.358076
v -7.900954 28.193497 -6.022684
v -0.004592 36.444702 -7.664940
v -12.971999 17.537903 -4.928960
v -8.008742 20.804840 -13.385432
v -12.512893 15.704575 -8.818649
v -11.091872 20.125198 6.673965
v -9.954543 10.220093 9.205773
v -10.186843 7.202545 9.770931
v -11.338820 11.616928 -17.334036
v -11.777907 0.997894 -12.042518
v -11.654860 -1.593063 -11.132980
v 13.735154 3.190994 -0.263748
v 17.256638 17.281616 -4.674428
v 15.992845 14.529694 -9.247883
v 13.679612 1.111176 -4.242110
v 15.319749 17.590546 -1.580969
v 13.356858 6.923157 1.056847
v 10.072190 27.465729 -2.804406
v 10.965989 28.823822 -5.414038
v 14.074510 6.046738 -1.237566
v 13.929612 3.701660 -5.312469
v 2.136399 11.111801 11.400139
v 2.594773 20.982376 9.103893
v 1.597581 34.037491 -2.876971
v 10.205247 20.977921 -15.359828
v 13.434983 2.288589 -7.844269
v 14.414231 13.167343 -11.561235
v 7.475877 19.061432 -17.596924
v 16.169113 13.802811 -3.742676
v 15.725999 12.111954 -8.306355
v 6.197190 21.242081 -7.351806
v 7.891770 28.193497 -6.022683
v 12.962815 17.537903 -4.928958
v 7.999558 20.804840 -13.385432
v 12.503709 15.704575 -8.818647
v 11.082688 20.125198 6.673965
v 9.945359 10.220093 9.205773
v 10.177659 7.202545 9.770931
v 11.329637 11.616928 -17.334038
v 11.768723 0.997894 -12.042517
v 11.645677 -1.593063 -11.132983
vt 0.048681 0.209380
vt 0.048702 0.209381
vt 0.048697 0.209465
vt 0.048680 0.209465
vt 0.048792 0.209406
vt 0.048794 0.209386
vt 0.048781 0.209390
vt 0.048756 0.209496
vt 0.048671 0.209485
vt 0.048675 0.209499
vt 0.048808 0.209376
vt 0.048799 0.209404
vt 0.244551 0.328995
vt 0.244753 0.329046
vt 0.244435 0.329171
vt 0.048750 0.209324
vt 0.048673 0.209266
vt 0.048673 0.209297
vt 0.048728 0.209334
vt 0.244293 0.329103
vt 0.244373 0.328766
vt 0.048759 0.209490
vt 0.048779 0.209491
vt 0.048796 0.209381
vt 0.048678 0.209201
vt 0.048692 0.209247
vt 0.048679 0.209232
vt 0.048764 0.209284
vt 0.048758 0.209300
vt 0.244309 0.329361
vt 0.244574 0.329291
vt 0.048782 0.209468
vt 0.048778 0.209468
vt 0.048778 0.209474
vt 0.048776 0.209495
vt 0.048757 0.209476
vt 0.048671 0.209466
vt 0.244533 0.353212
vt 0.244548 0.353210
vt 0.244539 0.353254
vt 0.244528 0.353254
vt 0.244528 0.353171
vt 0.244499 0.353212
vt 0.244494 0.353145
vt 0.244436 0.329412
vt 0.244529 0.353210
vt 0.244484 0.353210
vt 0.244484 0.353250
vt 0.244530 0.353256
vt 0.244514 0.353182
vt 0.244485 0.353163
vt 0.244548 0.353221
vt 0.244540 0.353256
vt 0.244542 0.353254
vt 0.244551 0.353221
vt 0.048772 0.209477
vt 0.048678 0.209218
vt 0.048739 0.209288
vt 0.048775 0.209373
vt 0.048734 0.209330
vt 0.048674 0.209276
vt 0.048769 0.209378
vt 0.244496 0.353253
vt 0.048680 0.209490
vt 0.048758 0.209465
vt 0.244542 0.353213
vt 0.244537 0.353258
vt 0.048663 0.209465
vt 0.048659 0.209381
vt 0.048557 0.209406
vt 0.048567 0.209391
vt 0.048555 0.209386
vt 0.048589 0.209496
vt 0.048544 0.209376
vt 0.048552 0.209405
vt 0.244618 0.328865
vt 0.048598 0.209325
vt 0.048618 0.209334
vt 0.244545 0.328693
vt 0.048598 0.209490
vt 0.048572 0.209492
vt 0.048558 0.209381
vt 0.048666 0.209247
vt 0.048591 0.209284
vt 0.048598 0.209301
vt 0.244679 0.328742
vt 0.244803 0.328892
vt 0.048569 0.209469
vt 0.048574 0.209468
vt 0.048571 0.209475
vt 0.048573 0.209496
vt 0.048588 0.209476
vt 0.244442 0.353212
vt 0.244447 0.353253
vt 0.244433 0.353253
vt 0.244425 0.353210
vt 0.244447 0.353170
vt 0.244481 0.353145
vt 0.244477 0.353212
vt 0.244782 0.328819
vt 0.244441 0.353210
vt 0.244439 0.353256
vt 0.244456 0.353182
vt 0.244424 0.353220
vt 0.244422 0.353221
vt 0.244430 0.353253
vt 0.244431 0.353256
vt 0.048575 0.209478
vt 0.048615 0.209288
vt 0.048576 0.209374
vt 0.048614 0.209330
vt 0.048581 0.209378
vt 0.244479 0.353253
vt 0.048600 0.209466
vt 0.244429 0.353212
vt 0.244432 0.353257
vn -0.290077 0.203458 0.935126
vn -0.290077 0.203458 0.935126
vn -0.290077 0.203458 0.935126
vn -0.290077 0.203458 0.935126
vn -0.861996 -0.263725 -0.432911
vn -0.861996 -0.263725 -0.432911
vn -0.861996 -0.263725 -0.432911
vn 0.088830 -0.967264 0.237719
vn 0.088830 -0.967264 0.237719
vn 0.088830 -0.967264 0.237719
vn -0.968133 -0.242384 -0.063002
vn -0.968133 -0.242384 -0.063002
vn -0.968133 -0.242384 -0.063002
vn -0.968133 -0.242384 -0.063002
vn -0.315788 0.898803 0.304025
vn -0.315788 0.898803 0.304025
vn -0.315788 0.898803 0.304025
vn -0.409764 0.166468 -0.896873
vn -0.409765 0.166468 -0.896873
vn -0.409765 0.166468 -0.896873
vn -0.409765 0.166468 -0.896873
vn -0.320994 0.111575 -0.940486
vn -0.320994 0.111575 -0.940486
vn -0.320994 0.111575 -0.940486
vn -0.320994 0.111575 -0.940486
vn -0.069380 -0.917592 0.391421
vn -0.069380 -0.917592 0.391421
vn -0.069380 -0.917592 0.391421
vn -0.836300 -0.118036 0.535416
vn -0.836300 -0.118036 0.535416
vn -0.836300 -0.118036 0.535416
vn -0.259472 0.679563 0.686198
vn -0.259472 0.679563 0.686198
vn -0.259472 0.679563 0.686198
vn -0.258085 0.665246 0.700600
vn -0.258085 0.665246 0.700600
vn -0.258085 0.665246 0.700600
vn -0.258085 0.665246 0.700600
vn -0.762503 0.453113 0.461820
vn -0.762503 0.453113 0.461820
vn -0.762503 0.453113 0.461820
vn -0.762503 0.453113 0.461820
vn -0.376651 0.084563 -0.922487
vn -0.376651 0.084563 -0.922488
vn -0.376651 0.084563 -0.922487
vn -0.561383 0.820447 0.108241
vn -0.561383 0.820447 0.108241
vn -0.561383 0.820447 0.108241
vn -0.953229 -0.010266 0.302074
vn -0.953229 -0.010266 0.302074
vn -0.953229 -0.010266 0.302074
vn -0.994880 -0.096958 0.028512
vn -0.994880 -0.096958 0.028512
vn -0.994880 -0.096958 0.028512
vn -0.994880 -0.096958 0.028512
vn -0.348228 -0.387895 -0.853390
vn -0.348228 -0.387895 -0.853390
vn -0.348228 -0.387895 -0.853390
vn -0.348228 -0.387895 -0.853390
vn -0.902156 -0.027769 0.430516
vn -0.902156 -0.027769 0.430516
vn -0.902156 -0.027769 0.430516
vn -0.902156 -0.027769 0.430516
vn -0.832672 0.477266 0.280847
vn -0.832672 0.477266 0.280847
vn -0.832672 0.477266 0.280847
vn -0.386241 0.686367 0.616213
vn -0.386241 0.686367 0.616213
vn -0.386241 0.686367 0.616213
vn -0.386241 0.686367 0.616213
vn -0.515550 0.661161 0.545045
vn -0.515550 0.661161 0.545045
vn -0.515550 0.661161 0.545045
vn -0.515550 0.661161 0.545045
vn -0.645971 0.758489 -0.086110
vn -0.645971 0.758489 -0.086110
vn -0.645971 0.758489 -0.086110
vn -0.645971 0.758489 -0.086110
vn -0.710550 0.041281 -0.702435
vn -0.710550 0.041281 -0.702435
vn -0.710550 0.041281 -0.702435
vn -0.710550 0.041281 -0.702435
vn -0.358672 -0.403433 -0.841781
vn -0.358672 -0.403433 -0.841781
vn -0.358672 -0.403433 -0.841781
vn -0.358672 -0.403433 -0.841781
vn -0.317273 0.131074 -0.939232
vn -0.317273 0.131074 -0.939232
vn -0.317273 0.131074 -0.939232
vn -0.321388 0.127300 -0.938352
vn -0.321388 0.127300 -0.938352
vn -0.321388 0.127300 -0.938352
vn -0.908376 -0.085813 0.409254
vn -0.908376 -0.085813 0.409254
vn -0.908376 -0.085813 0.409254
vn -0.908376 -0.085813 0.409254
vn -0.974372 -0.221825 0.037312
vn -0.974372 -0.221825 0.037312
vn -0.974372 -0.221825 0.037312
vn -0.974372 -0.221825 0.037312
vn -0.932812 -0.230579 -0.276939
vn -0.932812 -0.230579 -0.276939
vn -0.932812 -0.230579 -0.276939
vn -0.932812 -0.230579 -0.276939
vn -0.299553 0.153072 -0.941720
vn -0.299553 0.153072 -0.941720
vn -0.299553 0.153072 -0.941720
vn -0.299553 0.153072 -0.941720
vn -0.117424 -0.021897 -0.992840
vn -0.117424 -0.021897 -0.992840
vn -0.117424 -0.021897 -0.992840
vn -0.117424 -0.021897 -0.992840
vn -0.394690 0.828019 0.398251
vn -0.394690 0.828019 0.398251
vn -0.394690 0.828019 0.398251
vn -0.394690 0.828019 0.398251
vn -0.146491 0.856965 -0.494117
vn -0.146491 0.856965 -0.494118
vn -0.146491 0.856965 -0.494117
vn -0.146491 0.856965 -0.494117
vn -0.352924 0.785127 0.508939
vn -0.352924 0.785127 0.508939
vn -0.352924 0.785128 0.508939
vn -0.352924 0.785128 0.508939
vn -0.287485 0.205207 0.935544
vn -0.287485 0.205207 0.935544
vn -0.287485 0.205207 0.935544
vn -0.287485 0.205207 0.935544
vn -0.286541 0.198820 0.937211
vn -0.286595 0.198864 0.937185
vn -0.286579 0.198851 0.937193
vn -0.286541 0.198820 0.937211
vn -0.023554 -0.902431 0.430191
vn -0.023554 -0.902431 0.430191
vn -0.023554 -0.902431 0.430191
vn -0.938885 0.046765 0.341039
vn -0.938885 0.046765 0.341039
vn -0.938885 0.046765 0.341039
vn -0.938885 0.046765 0.341038
vn -0.769440 0.380188 -0.513244
vn -0.769440 0.380188 -0.513244
vn -0.769440 0.380188 -0.513245
vn -0.906811 -0.182096 -0.380178
vn -0.906811 -0.182096 -0.380178
vn -0.906811 -0.182096 -0.380178
vn -0.906811 -0.182096 -0.380178
vn -0.943217 -0.242001 -0.227548
vn -0.943217 -0.242001 -0.227548
vn -0.943217 -0.242001 -0.227548
vn -0.943217 -0.242001 -0.227548
vn -0.041969 -0.921755 0.385494
vn -0.043547 -0.919617 0.390395
vn -0.032756 -0.933635 0.356725
vn -0.983439 -0.141632 -0.113082
vn -0.983439 -0.141632 -0.113082
vn -0.983439 -0.141632 -0.113082
vn 0.290077 0.203458 0.935126
vn 0.290077 0.203458 0.935126
vn 0.290077 0.203458 0.935126
vn 0.290077 0.203458 0.935126
vn 0.861997 -0.263724 -0.432911
vn 0.861997 -0.263724 -0.432911
vn 0.861997 -0.263724 -0.432911
vn -0.088830 -0.967264 0.237719
vn -0.088830 -0.967264 0.237719
vn -0.088830 -0.967264 0.237719
vn 0.968133 -0.242385 -0.063001
vn 0.968132 -0.242385 -0.063001
vn 0.968132 -0.242385 -0.063001
vn 0.968132 -0.242385 -0.063001
vn 0.315788 0.898803 0.304025
vn 0.315788 0.898803 0.304025
vn 0.315788 0.898803 0.304025
vn 0.409765 0.166468 -0.896873
vn 0.409765 0.166468 -0.896873
vn 0.409765 0.166468 -0.896873
vn 0.409765 0.166468 -0.896873
vn 0.320994 0.111575 -0.940486
vn 0.320994 0.111575 -0.940486
vn 0.320994 0.111575 -0.940486
vn 0.320994 0.111575 -0.940486
vn 0.069380 -0.917592 0.391421
vn 0.069380 -0.917592 0.391421
vn 0.069380 -0.917592 0.391421
vn 0.836300 -0.118036 0.535415
vn 0.836300 -0.118036 0.535415
vn 0.836300 -0.118036 0.535415
vn 0.259471 0.679564 0.686198
vn 0.259471 0.679564 0.686198
vn 0.259471 0.679564 0.686198
vn 0.258085 0.665246 0.700600
vn 0.258085 0.665246 0.700600
vn 0.258085 0.665246 0.700600
vn 0.258085 0.665246 0.700600
vn 0.762503 0.453113 0.461820
vn 0.762503 0.453113 0.461820
vn 0.762503 0.453113 0.461820
vn 0.762503 0.453113 0.461820
vn 0.376651 0.084563 -0.922487
vn 0.376651 0.084563 -0.922487
vn 0.376651 0.084563 -0.922487
vn 0.561383 0.820447 0.108241
vn 0.561383 0.820447 0.108241
vn 0.561383 0.820447 0.108241
vn 0.953229 -0.010266 0.302074
vn 0.953229 -0.010266 0.302074
vn 0.953229 -0.010266 0.302074
vn 0.994880 -0.096957 0.028512
vn 0.994880 -0.096957 0.028512
vn 0.994880 -0.096957 0.028512
vn 0.994880 -0.096957 0.028512
vn 0.348228 -0.387895 -0.853390
vn 0.348228 -0.387895 -0.853390
vn 0.348228 -0.387895 -0.853390
vn 0.348228 -0.387895 -0.853390
vn 0.902156 -0.027769 0.430516
vn 0.902156 -0.027769 0.430516
vn 0.902156 -0.027769 0.430516
vn 0.902156 -0.027769 0.430516
vn 0.832672 0.477266 0.280847
vn 0.832671 0.477266 0.280847
vn 0.832672 0.477266 0.280847
vn 0.386241 0.686367 0.616213
vn 0.386241 0.686367 0.616213
vn 0.386241 0.686367 0.616213
vn 0.386241 0.686367 0.616213
vn 0.515550 0.661161 0.545045
vn 0.515550 0.661161 0.545045
vn 0.515551 0.661161 0.545045
vn 0.515550 0.661161 0.545045
vn 0.645971 0.758489 -0.086110
vn 0.645971 0.758489 -0.086110
vn 0.645971 0.758489 -0.086110
vn 0.645971 0.758489 -0.086110
vn 0.710550 0.041281 -0.702435
vn 0.710550 0.041281 -0.702435
vn 0.710550 0.041281 -0.702435
vn 0.710550 0.041281 -0.702435
vn 0.358672 -0.403433 -0.841781
vn 0.358672 -0.403433 -0.841781
vn 0.358672 -0.403433 -0.841781
vn 0.358672 -0.403433 -0.841781
vn 0.317273 0.131075 -0.939232
vn 0.317273 0.131075 -0.939232
vn 0.317273 0.131075 -0.939232
vn 0.321389 0.127300 -0.938352
vn 0.321389 0.127300 -0.938352
vn 0.321389 0.127300 -0.938352
vn 0.908376 -0.085813 0.409254
vn 0.908376 -0.085813 0.409254
vn 0.908376 -0.085813 0.409254
vn 0.908376 -0.085813 0.409254
vn 0.974373 -0.221824 0.037312
vn 0.974373 -0.221824 0.037312
vn 0.974373 -0.221824 0.037312
vn 0.974373 -0.221824 0.037312
vn 0.932812 -0.230578 -0.276939
vn 0.932812 -0.230578 -0.276939
vn 0.932812 -0.230578 -0.276939
vn 0.932812 -0.230578 -0.276939
vn 0.299552 0.153072 -0.941720
vn 0.299552 0.153072 -0.941720
vn 0.299552 0.153072 -0.941720
vn 0.299552 0.153072 -0.941720
vn 0.117424 -0.021897 -0.992840
vn 0.117424 -0.021897 -0.992840
vn 0.117424 -0.021897 -0.992840
vn 0.117424 -0.021897 -0.992840
vn 0.394690 0.828019 0.398251
vn 0.394690 0.828019 0.398251
vn 0.394690 0.828019 0.398251
vn 0.394690 0.828019 0.398251
vn 0.146491 0.856964 -0.494118
vn 0.146491 0.856964 -0.494118
vn 0.146491 0.856964 -0.494118
vn 0.146491 0.856964 -0.494118
vn 0.352925 0.785127 0.508940
vn 0.352925 0.785127 0.508940
vn 0.352925 0.785127 0.508940
vn 0.352925 0.785127 0.508940
vn 0.287485 0.205207 0.935544
vn 0.287485 0.205207 0.935544
vn 0.287485 0.205207 0.935544
vn 0.287485 0.205207 0.935544
vn 0.286541 0.198820 0.937211
vn 0.286541 0.198820 0.937211
vn 0.286579 0.198851 0.937193
vn 0.286595 0.198864 0.937185
vn 0.023554 -0.902431 0.430191
vn 0.023554 -0.902431 0.430191
vn 0.023554 -0.902431 0.430191
vn 0.938885 0.046764 0.341039
vn 0.938885 0.046764 0.341039
vn 0.938885 0.046764 0.341039
vn 0.938885 0.046764 0.341039
vn 0.769440 0.380188 -0.513245
vn 0.769440 0.380188 -0.513245
vn 0.769440 0.380188 -0.513245
vn 0.906811 -0.182096 -0.380178
vn 0.906811 -0.182096 -0.380178
vn 0.906811 -0.182096 -0.380178
vn 0.906811 -0.182096 -0.380178
vn 0.943217 -0.242001 -0.227548
vn 0.943217 -0.242001 -0.227548
vn 0.943217 -0.242001 -0.227548
vn 0.943217 -0.242001 -0.227548
vn 0.043547 -0.919617 0.390395
vn 0.041969 -0.921755 0.385494
vn 0.032756 -0.933635 0.356725
vn 0.983439 -0.141633 -0.113082
vn 0.983439 -0.141633 -0.113082
vn 0.983439 -0.141633 -0.113082
vn 0.286595 0.198864 0.937185
vn 0.286579 0.198851 0.937193
vn 0.287283 0.199420 0.936857
vn -0.286579 0.198851 0.937193
vn -0.286595 0.198864 0.937185
vn -0.287283 0.199420 0.936857
vn 0.066751 -0.884611 0.461527
vn 0.041969 -0.921755 0.385494
vn 0.043547 -0.919617 0.390395
vn -0.066751 -0.884611 0.461528
vn -0.043547 -0.919617 0.390395
vn -0.041969 -0.921755 0.385494
s off
g SM_Chr_Attach_Priest_Hat_01
usemtl SM_Chr_Attach_Priest_Hat_01SG
f 7/1/1 22/2/2 21/3/3 12/4/4
f 30/5/5 3/6/6 26/7/7
f 44/8/8 9/9/9 11/10/10
f 2/11/11 3/6/12 30/5/13 29/12/14
f 31/13/15 33/14/16 32/15/17
f 24/16/18 6/17/19 28/18/20 27/19/21
f 34/20/22 35/21/23 31/13/24 32/15/25
f 41/22/26 1/23/27 11/10/28
f 13/24/29 2/11/30 29/12/31
f 5/25/32 23/26/33 14/27/34
f 22/2/35 7/1/36 14/27/37 23/26/38
f 17/28/39 2/11/40 13/24/41 16/29/42
f 36/30/43 34/20/44 32/15/45
f 33/14/46 37/31/47 32/15/48
f 18/32/49 1/23/50 15/33/51
f 19/34/52 4/35/53 1/23/54 18/32/55
f 9/9/56 44/8/57 43/36/58 20/37/59
f 39/38/60 13/39/61 15/40/62 40/41/63
f 16/42/64 13/39/65 39/38/66
f 16/42/67 39/38/68 22/43/69 23/44/70
f 5/25/71 17/28/72 16/29/73 23/26/74
f 37/31/75 38/45/76 36/30/77 32/15/78
f 3/6/79 24/16/80 27/19/81 26/7/82
f 42/46/83 10/47/84 20/48/85 43/49/86
f 27/50/87 10/47/88 42/46/89
f 28/51/90 10/47/91 27/50/92
f 13/24/93 29/12/94 18/32/95 15/33/96
f 30/52/97 19/53/98 18/54/99 29/55/100
f 19/34/101 30/5/102 26/7/103 25/56/104
f 5/25/105 35/57/106 34/58/107 17/28/108
f 17/28/109 34/58/110 36/59/111 2/11/112
f 24/16/113 37/60/114 33/61/115 6/17/116
f 2/11/117 36/59/118 38/62/119 3/6/120
f 3/6/121 38/62/122 37/60/123 24/16/124
f 22/43/125 39/38/126 40/41/127 21/63/128
f 41/22/129 8/64/130 21/3/131 40/65/132
f 8/64/133 41/22/134 11/10/135
f 1/23/136 41/22/137 40/65/138 15/33/139
f 27/50/140 42/46/141 26/66/142
f 26/66/143 42/46/144 43/49/145 25/67/146
f 44/8/147 4/35/148 25/56/149 43/36/150
f 11/10/151 4/35/152 44/8/153
f 4/35/154 19/34/155 25/56/156
f 7/1/157 12/4/158 55/68/159 56/69/160
f 63/70/161 60/71/162 47/72/163
f 74/73/164 11/10/165 9/9/166
f 46/74/167 62/75/168 63/70/169 47/72/170
f 31/13/171 64/76/172 33/14/173
f 58/77/174 61/78/175 28/18/176 6/17/177
f 65/79/178 64/76/179 31/13/180 35/21/181
f 71/80/182 11/10/183 45/81/184
f 49/82/185 62/75/186 46/74/187
f 5/25/188 14/27/189 57/83/190
f 56/69/191 57/83/192 14/27/193 7/1/194
f 52/84/195 51/85/196 49/82/197 46/74/198
f 66/86/199 64/76/200 65/79/201
f 33/14/202 64/76/203 67/87/204
f 53/88/205 50/89/206 45/81/207
f 54/90/208 53/88/209 45/81/210 48/91/211
f 9/9/212 20/37/213 73/92/214 74/73/215
f 69/93/216 70/94/217 50/95/218 49/96/219
f 51/97/220 69/93/221 49/96/222
f 51/97/223 57/98/224 56/99/225 69/93/226
f 5/25/227 57/83/228 51/85/229 52/84/230
f 67/87/231 64/76/232 66/86/233 68/100/234
f 47/72/235 60/71/236 61/78/237 58/77/238
f 72/101/239 73/102/240 20/48/241 10/47/242
f 61/103/243 72/101/244 10/47/245
f 28/51/246 61/103/247 10/47/248
f 49/82/249 50/89/250 53/88/251 62/75/252
f 63/104/253 62/105/254 53/106/255 54/107/256
f 54/90/257 59/108/258 60/71/259 63/70/260
f 5/25/261 52/84/262 65/109/263 35/57/264
f 52/84/265 46/74/266 66/110/267 65/109/268
f 58/77/269 6/17/270 33/61/271 67/111/272
f 46/74/273 47/72/274 68/112/275 66/110/276
f 47/72/277 58/77/278 67/111/279 68/112/280
f 56/99/281 55/113/282 70/94/283 69/93/284
f 71/80/285 70/114/286 55/68/287 8/64/288
f 8/64/289 11/10/290 71/80/291
f 45/81/292 50/89/293 70/114/294 71/80/295
f 61/103/296 60/115/297 72/101/298
f 60/115/299 59/116/300 73/102/301 72/101/302
f 74/73/303 73/92/304 59/108/305 48/91/306
f 48/91/307 11/10/308 74/73/309
f 48/91/310 59/108/311 54/90/312
f 8/64/313 55/68/314 12/4/315
f 21/3/316 8/64/317 12/4/318
f 45/81/319 11/10/320 48/91/321
f 1/23/322 4/35/323 11/10/324
