# This file uses centimeters as units for non-parametric coordinates.

mtllib SM_Chr_Attach_Princess_Tiara_01.mtl
g default
v 0.133103 15.166580 6.698884
v 0.133103 19.805847 4.940026
v 0.133103 19.834610 6.111203
v 0.133103 15.975143 7.570295
v 0.133103 16.471527 7.333586
v 0.133103 18.815292 6.374785
v 0.133103 17.533829 7.536470
v -7.822829 13.523453 4.573578
v -9.111098 12.841766 0.818974
v -7.584670 15.858826 3.873533
v -8.987014 15.060486 0.504568
v -8.155288 15.779846 4.610035
v -8.115798 14.141724 4.989818
v -10.139968 13.387360 0.818395
v -10.037612 14.813141 0.625092
v -4.705642 15.698624 6.643534
v -4.576491 17.571762 6.174931
v -4.272536 17.592148 5.163587
v -4.423476 14.939255 5.932071
v -2.840407 17.194061 6.688817
v -2.490371 16.568344 6.981388
v -2.258742 17.921432 6.527188
v -6.900161 12.306732 -8.317489
v -6.765517 13.739868 -8.410564
v -5.961867 14.044846 -7.746777
v -6.156631 11.816223 -7.567232
v -10.037612 14.366791 -3.819617
v -8.987014 14.614136 -3.940141
v -9.111098 12.395416 -3.625735
v -10.139968 12.941010 -3.626313
v -3.273879 12.176437 -10.090385
v -3.169936 13.615021 -10.109495
v -2.895888 13.944550 -9.111597
v -3.065261 11.707626 -9.044938
v 0.133103 12.164536 -10.252330
v 0.133103 13.603119 -10.271441
v 0.133103 13.932648 -9.273541
v 0.133103 11.695724 -9.206882
v 8.088975 13.523453 4.573578
v 9.377244 12.841766 0.818974
v 7.850816 15.858826 3.873533
v 9.253221 15.060486 0.504568
v 8.421494 15.779846 4.610035
v 8.381944 14.141724 4.989818
v 10.406175 13.387360 0.818395
v 10.303819 14.813141 0.625092
v 4.971848 15.698624 6.643534
v 4.842698 17.571762 6.174931
v 4.538743 17.592148 5.163587
v 4.689683 14.939255 5.932071
v 3.106553 17.194061 6.688817
v 2.756577 16.568344 6.981388
v 2.524949 17.921432 6.527188
v 7.166306 12.306732 -8.317489
v 7.031724 13.739868 -8.410564
v 6.228013 14.044846 -7.746777
v 6.422837 11.816223 -7.567232
v 10.303819 14.366791 -3.819617
v 9.253221 14.614136 -3.940141
v 9.377244 12.395416 -3.625735
v 10.406175 12.941010 -3.626313
v 3.540086 12.176437 -10.090385
v 3.436143 13.615021 -10.109495
v 3.162034 13.944550 -9.111597
v 3.331407 11.707626 -9.044938
vt 0.051024 0.212078
vt 0.051061 0.212094
vt 0.051052 0.212044
vt 0.050850 0.212120
vt 0.050836 0.212050
vt 0.050627 0.212068
vt 0.050634 0.212125
vt 0.050922 0.212052
vt 0.050989 0.212052
vt 0.051061 0.212266
vt 0.050948 0.212166
vt 0.050833 0.212154
vt 0.050644 0.212170
vt 0.050632 0.212081
vt 0.050809 0.212062
vt 0.050967 0.212042
vt 0.051109 0.212224
vt 0.050981 0.212122
vt 0.051037 0.212133
vt 0.051019 0.212097
vt 0.051100 0.212202
vt 0.050419 0.212106
vt 0.050429 0.212162
vt 0.050437 0.212208
vt 0.050421 0.212119
vt 0.050256 0.212232
vt 0.050219 0.212229
vt 0.050269 0.212322
vt 0.050227 0.212287
vt 0.050151 0.212336
vt 0.257659 0.367350
vt 0.257659 0.367350
vt 0.257659 0.367350
vt 0.257659 0.367350
vt 0.257659 0.367350
vt 0.257659 0.367350
vt 0.050156 0.212396
vt 0.050213 0.212417
vt 0.050204 0.212323
vt 0.050159 0.212431
vt 0.050165 0.212496
vt 0.050223 0.212511
vt 0.050213 0.212410
vt 0.051109 0.212200
vt 0.051118 0.212575
vt 0.050909 0.212715
vt 0.050902 0.212642
vt 0.051107 0.212498
vt 0.051071 0.212281
vt 0.051102 0.212411
vt 0.051085 0.212598
vt 0.051053 0.212480
vt 0.050877 0.212592
vt 0.050889 0.212703
vt 0.051134 0.212285
vt 0.051151 0.212379
vt 0.051131 0.212270
vt 0.051125 0.212251
vt 0.050639 0.212771
vt 0.050627 0.212698
vt 0.050606 0.212646
vt 0.050625 0.212757
vt 0.050311 0.212639
vt 0.050343 0.212591
vt 0.050360 0.212703
vt 0.050321 0.212712
vt 0.050193 0.212603
vt 0.050186 0.212533
vt 0.050241 0.212502
vt 0.050252 0.212611
vt 0.257659 0.367350
vt 0.257659 0.367350
vt 0.257659 0.367350
vt 0.257659 0.367350
vt 0.257659 0.367350
vt 0.257659 0.367350
vn -0.031855 0.250227 0.967663
vn -0.031855 0.250227 0.967663
vn -0.031855 0.250227 0.967663
vn -0.905466 0.095901 0.413441
vn -0.905466 0.095901 0.413441
vn -0.905466 0.095901 0.413441
vn -0.905466 0.095901 0.413441
vn 0.145582 -0.326672 -0.933858
vn 0.145582 -0.326672 -0.933858
vn 0.145582 -0.326672 -0.933858
vn 0.145582 -0.326672 -0.933858
vn 0.935094 -0.146284 -0.322799
vn 0.935094 -0.146284 -0.322799
vn 0.935094 -0.146284 -0.322799
vn 0.935094 -0.146284 -0.322799
vn -0.441534 0.894893 -0.064926
vn -0.441534 0.894893 -0.064926
vn -0.441534 0.894893 -0.064926
vn -0.441534 0.894892 -0.064926
vn -0.086599 -0.715461 0.693265
vn -0.086599 -0.715461 0.693265
vn -0.086599 -0.715461 0.693265
vn -0.086599 -0.715461 0.693265
vn -0.547809 -0.752633 0.365308
vn -0.547809 -0.752633 0.365308
vn -0.547809 -0.752633 0.365308
vn -0.547809 -0.752633 0.365308
vn -0.254837 0.959932 -0.116570
vn -0.254837 0.959932 -0.116570
vn -0.254837 0.959932 -0.116570
vn -0.254837 0.959932 -0.116570
vn -0.492006 0.216312 0.843291
vn -0.492006 0.216312 0.843291
vn -0.492006 0.216312 0.843291
vn -0.492006 0.216312 0.843291
vn -0.400691 0.904001 -0.149092
vn -0.400691 0.904001 -0.149092
vn -0.400691 0.904001 -0.149092
vn -0.400691 0.904001 -0.149092
vn 0.464114 -0.283276 -0.839258
vn 0.464114 -0.283276 -0.839257
vn 0.464114 -0.283276 -0.839258
vn 0.464114 -0.283276 -0.839258
vn -0.054739 -0.646057 0.761324
vn -0.054739 -0.646057 0.761324
vn -0.054739 -0.646057 0.761324
vn -0.054739 -0.646057 0.761324
vn -0.193144 0.113361 0.974600
vn -0.193144 0.113361 0.974600
vn -0.193144 0.113361 0.974600
vn -0.224123 0.251037 0.941674
vn -0.224123 0.251037 0.941674
vn -0.224123 0.251037 0.941674
vn -0.209954 0.008412 0.977675
vn -0.209954 0.008412 0.977675
vn -0.209954 0.008412 0.977675
vn -0.209954 0.008412 0.977675
vn -0.234607 0.581218 0.779195
vn -0.234607 0.581218 0.779195
vn -0.234607 0.581218 0.779195
vn -0.234607 0.581218 0.779195
vn -0.254298 0.289246 0.922859
vn -0.254298 0.289246 0.922859
vn -0.254298 0.289246 0.922859
vn -0.192787 0.357223 0.913907
vn -0.192787 0.357223 0.913907
vn -0.192787 0.357223 0.913907
vn -0.199435 0.439737 0.875704
vn -0.199435 0.439737 0.875704
vn -0.199435 0.439737 0.875704
vn -0.104712 0.428066 0.897661
vn -0.104712 0.428066 0.897661
vn -0.104712 0.428066 0.897661
vn -0.997477 0.070640 -0.007094
vn -0.997477 0.070640 -0.007094
vn -0.997477 0.070640 -0.007094
vn -0.997477 0.070640 -0.007094
vn 0.998468 -0.055052 0.005528
vn 0.998468 -0.055052 0.005528
vn 0.998468 -0.055052 0.005528
vn 0.998468 -0.055052 0.005528
vn -0.466688 -0.879996 0.088371
vn -0.466688 -0.879996 0.088371
vn -0.466688 -0.879996 0.088371
vn -0.466688 -0.879996 0.088371
vn -0.238615 0.966254 -0.097035
vn -0.238615 0.966254 -0.097035
vn -0.238615 0.966254 -0.097035
vn -0.238615 0.966254 -0.097035
vn -0.197192 0.939038 -0.281645
vn -0.197192 0.939038 -0.281644
vn -0.197192 0.939038 -0.281645
vn -0.197192 0.939038 -0.281644
vn 0.792394 0.010932 0.609912
vn 0.792394 0.010932 0.609912
vn 0.792394 0.010932 0.609912
vn 0.792394 0.010932 0.609912
vn -0.434960 -0.880536 -0.188326
vn -0.434960 -0.880536 -0.188326
vn -0.434960 -0.880536 -0.188326
vn -0.434960 -0.880536 -0.188326
vn -0.817941 0.010174 -0.575213
vn -0.817941 0.010174 -0.575213
vn -0.817941 0.010174 -0.575213
vn -0.817941 0.010174 -0.575213
vn -0.433252 0.000786 -0.901273
vn -0.433252 0.000786 -0.901272
vn -0.433252 0.000786 -0.901272
vn -0.433252 0.000786 -0.901273
vn 0.419529 0.015831 0.907604
vn 0.419529 0.015831 0.907604
vn 0.419529 0.015831 0.907604
vn 0.419529 0.015831 0.907604
vn -0.211618 -0.904257 -0.370861
vn -0.211618 -0.904257 -0.370861
vn -0.211618 -0.904257 -0.370861
vn -0.211618 -0.904257 -0.370861
vn -0.103744 0.949734 -0.295368
vn -0.103744 0.949734 -0.295368
vn -0.103744 0.949734 -0.295368
vn -0.103744 0.949734 -0.295368
vn -0.048251 -0.011524 -0.998769
vn -0.048251 -0.011524 -0.998769
vn -0.048251 -0.011524 -0.998769
vn -0.048251 -0.011524 -0.998769
vn 0.052027 0.027778 0.998259
vn 0.052027 0.027778 0.998259
vn 0.052027 0.027778 0.998259
vn 0.052027 0.027778 0.998259
vn -0.023254 -0.913076 -0.407125
vn -0.023254 -0.913076 -0.407125
vn -0.023254 -0.913076 -0.407125
vn -0.023254 -0.913076 -0.407125
vn -0.012388 0.949993 -0.312025
vn -0.012388 0.949993 -0.312024
vn -0.012388 0.949993 -0.312024
vn -0.012388 0.949993 -0.312025
vn 0.031855 0.250227 0.967663
vn 0.031855 0.250227 0.967663
vn 0.031855 0.250227 0.967663
vn 0.905467 0.095900 0.413441
vn 0.905467 0.095900 0.413441
vn 0.905467 0.095900 0.413441
vn 0.905467 0.095900 0.413441
vn -0.145582 -0.326672 -0.933858
vn -0.145582 -0.326672 -0.933858
vn -0.145582 -0.326672 -0.933858
vn -0.145582 -0.326672 -0.933858
vn -0.935095 -0.146284 -0.322799
vn -0.935095 -0.146284 -0.322799
vn -0.935095 -0.146284 -0.322799
vn -0.935094 -0.146284 -0.322799
vn 0.441534 0.894893 -0.064920
vn 0.441534 0.894893 -0.064920
vn 0.441534 0.894893 -0.064920
vn 0.441534 0.894893 -0.064920
vn 0.086599 -0.715461 0.693265
vn 0.086599 -0.715461 0.693265
vn 0.086599 -0.715461 0.693265
vn 0.086599 -0.715461 0.693265
vn 0.547809 -0.752633 0.365307
vn 0.547809 -0.752633 0.365307
vn 0.547809 -0.752633 0.365307
vn 0.547809 -0.752633 0.365307
vn 0.254837 0.959933 -0.116566
vn 0.254837 0.959933 -0.116566
vn 0.254837 0.959933 -0.116566
vn 0.254837 0.959933 -0.116566
vn 0.492006 0.216312 0.843291
vn 0.492006 0.216312 0.843291
vn 0.492006 0.216312 0.843291
vn 0.492006 0.216312 0.843291
vn 0.400690 0.903999 -0.149105
vn 0.400690 0.904000 -0.149105
vn 0.400690 0.904000 -0.149105
vn 0.400690 0.903999 -0.149105
vn -0.464112 -0.283276 -0.839258
vn -0.464112 -0.283276 -0.839258
vn -0.464112 -0.283276 -0.839258
vn -0.464112 -0.283276 -0.839258
vn 0.054739 -0.646059 0.761322
vn 0.054739 -0.646059 0.761322
vn 0.054739 -0.646059 0.761322
vn 0.054739 -0.646059 0.761322
vn 0.193141 0.113359 0.974601
vn 0.193141 0.113359 0.974601
vn 0.193141 0.113359 0.974601
vn 0.224124 0.251038 0.941673
vn 0.224124 0.251038 0.941673
vn 0.224124 0.251038 0.941673
vn 0.209952 0.008412 0.977676
vn 0.209952 0.008412 0.977676
vn 0.209952 0.008412 0.977676
vn 0.209952 0.008412 0.977676
vn 0.234607 0.581218 0.779195
vn 0.234607 0.581218 0.779195
vn 0.234607 0.581218 0.779195
vn 0.234607 0.581218 0.779195
vn 0.254299 0.289246 0.922859
vn 0.254299 0.289246 0.922859
vn 0.254299 0.289246 0.922859
vn 0.192787 0.357223 0.913907
vn 0.192787 0.357223 0.913907
vn 0.192787 0.357223 0.913907
vn 0.199434 0.439737 0.875704
vn 0.199434 0.439737 0.875704
vn 0.199434 0.439737 0.875704
vn 0.104712 0.428066 0.897661
vn 0.104712 0.428066 0.897661
vn 0.104712 0.428066 0.897661
vn 0.997477 0.070640 -0.007094
vn 0.997477 0.070640 -0.007094
vn 0.997477 0.070640 -0.007094
vn 0.997477 0.070640 -0.007094
vn -0.998468 -0.055052 0.005528
vn -0.998468 -0.055052 0.005528
vn -0.998468 -0.055052 0.005528
vn -0.998468 -0.055052 0.005528
vn 0.466688 -0.879996 0.088371
vn 0.466688 -0.879996 0.088371
vn 0.466688 -0.879996 0.088371
vn 0.466688 -0.879996 0.088371
vn 0.238615 0.966254 -0.097035
vn 0.238615 0.966254 -0.097035
vn 0.238615 0.966254 -0.097035
vn 0.238615 0.966254 -0.097035
vn 0.197192 0.939036 -0.281650
vn 0.197192 0.939036 -0.281650
vn 0.197192 0.939036 -0.281650
vn 0.197192 0.939036 -0.281650
vn -0.792394 0.010932 0.609912
vn -0.792394 0.010932 0.609912
vn -0.792394 0.010932 0.609912
vn -0.792394 0.010932 0.609912
vn 0.434961 -0.880536 -0.188324
vn 0.434960 -0.880536 -0.188324
vn 0.434960 -0.880536 -0.188324
vn 0.434961 -0.880536 -0.188324
vn 0.817942 0.010174 -0.575210
vn 0.817942 0.010174 -0.575210
vn 0.817942 0.010174 -0.575210
vn 0.817942 0.010174 -0.575210
vn 0.433253 0.000786 -0.901272
vn 0.433253 0.000786 -0.901272
vn 0.433253 0.000786 -0.901272
vn 0.433253 0.000786 -0.901272
vn -0.419530 0.015831 0.907604
vn -0.419530 0.015831 0.907604
vn -0.419530 0.015831 0.907604
vn -0.419530 0.015831 0.907603
vn 0.211618 -0.904255 -0.370864
vn 0.211618 -0.904255 -0.370864
vn 0.211618 -0.904255 -0.370864
vn 0.211618 -0.904255 -0.370864
vn 0.103744 0.949734 -0.295368
vn 0.103744 0.949734 -0.295368
vn 0.103744 0.949734 -0.295368
vn 0.103744 0.949734 -0.295368
vn 0.048251 -0.011524 -0.998769
vn 0.048251 -0.011524 -0.998769
vn 0.048251 -0.011524 -0.998769
vn 0.048251 -0.011524 -0.998769
vn -0.052027 0.027778 0.998259
vn -0.052027 0.027778 0.998259
vn -0.052027 0.027778 0.998259
vn -0.052027 0.027778 0.998259
vn 0.023254 -0.913077 -0.407125
vn 0.023254 -0.913076 -0.407125
vn 0.023254 -0.913077 -0.407125
vn 0.023254 -0.913076 -0.407125
vn 0.012388 0.949992 -0.312028
vn 0.012388 0.949992 -0.312028
vn 0.012388 0.949992 -0.312028
vn 0.012388 0.949992 -0.312028
s off
g SM_Chr_Attach_Princess_Tiara_01
usemtl SM_Chr_Attach_Princess_Tiara_01SG
f 22/1/1 6/2/2 3/3/3
f 13/4/4 12/5/5 15/6/6 14/7/7
f 18/8/8 2/9/9 1/10/10 19/11/11
f 8/12/12 9/13/13 11/14/14 10/15/15
f 18/8/16 17/16/17 3/3/18 2/9/19
f 1/10/20 4/17/21 16/18/22 19/11/23
f 8/12/24 13/4/25 14/7/26 9/13/27
f 11/14/28 15/6/29 12/5/30 10/15/31
f 12/5/32 13/4/33 16/18/34 17/16/35
f 10/15/36 12/5/37 17/16/38 18/8/39
f 10/15/40 18/8/41 19/11/42 8/12/43
f 16/18/44 13/4/45 8/12/46 19/11/47
f 16/18/48 4/17/49 21/19/50
f 17/16/51 16/18/52 20/20/53
f 5/31/54 7/32/55 20/33/56 21/34/57
f 20/33/58 7/32/59 6/35/60 22/36/61
f 16/18/62 21/19/63 20/20/64
f 17/16/65 20/20/66 22/1/67
f 17/16/68 22/1/69 3/3/70
f 4/17/71 5/21/72 21/19/73
f 15/6/74 27/22/75 30/23/76 14/7/77
f 9/13/78 29/24/79 28/25/80 11/14/81
f 14/7/82 30/23/83 29/24/84 9/13/85
f 11/14/86 28/25/87 27/22/88 15/6/89
f 28/25/90 25/26/91 24/27/92 27/22/93
f 29/24/94 26/28/95 25/26/96 28/25/97
f 30/23/98 23/29/99 26/28/100 29/24/101
f 27/22/102 24/27/103 23/29/104 30/23/105
f 24/27/106 32/30/107 31/37/108 23/29/109
f 26/28/110 34/38/111 33/39/112 25/26/113
f 23/29/114 31/37/115 34/38/116 26/28/117
f 25/26/118 33/39/119 32/30/120 24/27/121
f 32/30/122 36/40/123 35/41/124 31/37/125
f 34/38/126 38/42/127 37/43/128 33/39/129
f 31/37/130 35/41/131 38/42/132 34/38/133
f 33/39/134 37/43/135 36/40/136 32/30/137
f 53/44/138 3/3/139 6/2/140
f 44/45/141 45/46/142 46/47/143 43/48/144
f 49/49/145 50/50/146 1/10/147 2/9/148
f 39/51/149 41/52/150 42/53/151 40/54/152
f 49/49/153 2/9/154 3/3/155 48/55/156
f 1/10/157 50/50/158 47/56/159 4/17/160
f 39/51/161 40/54/162 45/46/163 44/45/164
f 42/53/165 41/52/166 43/48/167 46/47/168
f 43/48/169 48/55/170 47/56/171 44/45/172
f 41/52/173 49/49/174 48/55/175 43/48/176
f 41/52/177 39/51/178 50/50/179 49/49/180
f 47/56/181 50/50/182 39/51/183 44/45/184
f 47/56/185 52/57/186 4/17/187
f 48/55/188 51/58/189 47/56/190
f 5/76/191 52/75/192 51/74/193 7/73/194
f 51/74/195 53/72/196 6/71/197 7/73/198
f 47/56/199 51/58/200 52/57/201
f 48/55/202 53/44/203 51/58/204
f 48/55/205 3/3/206 53/44/207
f 4/17/208 52/57/209 5/21/210
f 46/47/211 45/46/212 61/59/213 58/60/214
f 40/54/215 42/53/216 59/61/217 60/62/218
f 45/46/219 40/54/220 60/62/221 61/59/222
f 42/53/223 46/47/224 58/60/225 59/61/226
f 59/61/227 58/60/228 55/63/229 56/64/230
f 60/62/231 59/61/232 56/64/233 57/65/234
f 61/59/235 60/62/236 57/65/237 54/66/238
f 58/60/239 61/59/240 54/66/241 55/63/242
f 55/63/243 54/66/244 62/67/245 63/68/246
f 57/65/247 56/64/248 64/69/249 65/70/250
f 54/66/251 57/65/252 65/70/253 62/67/254
f 56/64/255 55/63/256 63/68/257 64/69/258
f 63/68/259 62/67/260 35/41/261 36/40/262
f 65/70/263 64/69/264 37/43/265 38/42/266
f 62/67/267 65/70/268 38/42/269 35/41/270
f 64/69/271 63/68/272 36/40/273 37/43/274
